<svg width="1200" height="760" viewBox="0 0 1200 760" fill="none" xmlns="http://www.w3.org/2000/svg">
  <rect width="1200" height="760" rx="24" fill="#F8FBFF"/>
  <rect x="118" y="134" width="964" height="492" rx="28" fill="white" stroke="#BFDBFE" stroke-width="5"/>
  <rect x="166" y="188" width="368" height="384" rx="18" fill="#EFF6FF" stroke="#93C5FD" stroke-width="4"/>
  <rect x="666" y="188" width="368" height="384" rx="18" fill="#EFF6FF" stroke="#93C5FD" stroke-width="4"/>
  <g stroke="#60A5FA" stroke-width="4">
    <path d="M204 232H496M204 288H496M204 344H496M204 400H496M204 456H496M204 512H496"/>
    <path d="M704 232H996M704 288H996M704 344H996M704 400H996M704 456H996M704 512H996"/>
  </g>
  <g fill="#DBEAFE" stroke="#2563EB" stroke-width="3">
    <circle cx="247" cy="232" r="19"/><circle cx="329" cy="232" r="19"/><circle cx="411" cy="232" r="19"/>
    <circle cx="247" cy="344" r="19"/><circle cx="329" cy="344" r="19"/><circle cx="411" cy="344" r="19"/>
    <circle cx="789" cy="288" r="19"/><circle cx="871" cy="288" r="19"/><circle cx="953" cy="288" r="19"/>
    <circle cx="789" cy="456" r="19"/><circle cx="871" cy="456" r="19"/><circle cx="953" cy="456" r="19"/>
  </g>
  <path d="M595 187V513" stroke="#2563EB" stroke-width="8" stroke-linecap="round"/>
  <path d="M595 292L746 350" stroke="#2563EB" stroke-width="8" stroke-linecap="round"/>
  <path d="M746 350L806 330" stroke="#0EA5E9" stroke-width="8" stroke-linecap="round"/>
  <rect x="552" y="512" width="86" height="50" rx="12" fill="#2563EB"/>
  <path d="M536 608H664" stroke="#2563EB" stroke-width="8" stroke-linecap="round"/>
  <circle cx="596" cy="292" r="28" fill="white" stroke="#2563EB" stroke-width="6"/>
  <circle cx="844" cy="318" r="54" fill="#DBEAFE" stroke="#2563EB" stroke-width="5"/>
  <circle cx="844" cy="318" r="14" fill="#2563EB"/>
  <path d="M844 264V372M790 318H898" stroke="white" stroke-width="4" opacity=".9"/>
</svg>
