<svg width="1200" height="760" viewBox="0 0 1200 760" fill="none" xmlns="http://www.w3.org/2000/svg">
  <rect width="1200" height="760" rx="24" fill="#F8FBFF"/>
  <rect x="146" y="142" width="908" height="476" rx="30" fill="white" stroke="#BFDBFE" stroke-width="5"/>
  <rect x="218" y="214" width="270" height="252" rx="24" fill="#EFF6FF" stroke="#93C5FD" stroke-width="5"/>
  <rect x="712" y="214" width="270" height="252" rx="24" fill="#EFF6FF" stroke="#93C5FD" stroke-width="5"/>
  <circle cx="353" cy="306" r="48" fill="white" stroke="#2563EB" stroke-width="6"/>
  <circle cx="847" cy="306" r="48" fill="white" stroke="#2563EB" stroke-width="6"/>
  <path d="M282 410H424M776 410H918" stroke="#60A5FA" stroke-width="10" stroke-linecap="round"/>
  <path d="M488 340C548 295 652 295 712 340M488 402C548 447 652 447 712 402" stroke="#2563EB" stroke-width="7" stroke-linecap="round"/>
  <circle cx="600" cy="371" r="70" fill="white" stroke="#0EA5E9" stroke-width="6"/>
  <path d="M568 368L594 394L635 344" stroke="#0EA5E9" stroke-width="9" stroke-linecap="round" stroke-linejoin="round"/>
  <path d="M272 536H928" stroke="#BFDBFE" stroke-width="6" stroke-linecap="round"/>
  <circle cx="346" cy="536" r="18" fill="#2563EB"/>
  <circle cx="600" cy="536" r="18" fill="#0EA5E9"/>
  <circle cx="854" cy="536" r="18" fill="#2563EB"/>
  <path d="M346 536V582M600 536V582M854 536V582" stroke="#93C5FD" stroke-width="5" stroke-linecap="round"/>
</svg>
